Coordinates
version=1
nRows=19
nColumns=24
inDegrees=yes

Units are S.I. units (second, meters, Newtons, ...)
Angles are in degrees.

endheader
time	pelvis_tilt	pelvis_list	pelvis_rotation	pelvis_tx	pelvis_ty	pelvis_tz	hip_flexion_r	hip_adduction_r	hip_rotation_r	knee_angle_r	ankle_angle_r	subtalar_angle_r	mtp_angle_r	hip_flexion_l	hip_adduction_l	hip_rotation_l	knee_angle_l	ankle_angle_l	subtalar_angle_l	mtp_angle_l	lumbar_extension	lumbar_bending	lumbar_rotation
      4.22500000	     -8.61279224	     -7.96116472	      7.51022255	     -0.20377751	     -0.04049458	      0.66804897	     31.56659823	      4.74644027	     -0.78092649	    -34.00466407	      3.13977578	     -1.53893749	     15.31029337	     14.60405203	     -6.60345327	      4.63546157	    -61.60842346	    -25.45061873	      8.92826732	     32.36916429	      9.07837702	     14.43524940	    -10.72760437
      4.23000000	     -8.53665604	     -7.86712336	      7.37383773	     -0.19658789	     -0.03911178	      0.66838689	     30.86009121	      4.90132321	     -0.49535342	    -33.75158064	      3.42488598	     -1.82668218	     14.98751614	     15.56934931	     -6.47016600	      4.34809367	    -62.74476701	    -24.45107983	      9.43742287	     34.01377183	      8.88625186	     14.37171161	    -10.27923955
      4.23500000	     -8.45641512	     -7.81974842	      7.24547692	     -0.18932608	     -0.03766963	      0.66871073	     30.10870957	      5.09478714	     -0.19258332	    -33.43006678	      3.77651903	     -1.96555433	     14.55883786	     16.52766222	     -6.40920257	      4.04497595	    -63.77262046	    -23.72320596	      9.64877063	     35.69730016	      8.72340696	     14.34900093	     -9.89075771
      4.24000000	     -8.38149954	     -7.75654443	      7.11721662	     -0.18208372	     -0.03622537	      0.66898614	     29.33926302	      5.25013681	      0.09279187	    -33.05807653	      4.09997577	     -2.05671776	     14.46784405	     17.49994405	     -6.33510480	      3.71784524	    -64.78883198	    -22.90594679	      9.71143963	     36.28611564	      8.57172102	     14.30490124	     -9.53398840
      4.24500000	     -8.33583180	     -7.72912811	      6.98974799	     -0.17477375	     -0.03473538	      0.66937547	     28.56263341	      5.46460775	      0.42390281	    -32.60988057	      4.30129367	     -2.41954471	     14.09122647	     18.48945932	     -6.31003983	      3.42511188	    -65.69289743	    -22.31087914	      9.57700694	     36.85827523	      8.47838079	     14.27559439	     -9.14627539
      4.25000000	     -8.26886050	     -7.72160441	      6.89298277	     -0.16755313	     -0.03327460	      0.66968017	     27.76066380	      5.65186748	      0.66092782	    -32.14210425	      4.54991133	     -2.59167041	     13.86942128	     19.47618722	     -6.31193812	      3.13827463	    -66.54630028	    -21.86316671	      9.17235039	     37.09991617	      8.36423188	     14.26522961	     -8.86861615
      4.25500000	     -8.23500429	     -7.69405359	      6.75864351	     -0.16024397	     -0.03178665	      0.67008238	     26.95932868	      5.85006355	      0.97861582	    -31.63038580	      4.72851796	     -2.95648215	     13.31696493	     20.45833118	     -6.30350913	      2.83072275	    -67.29830545	    -21.47731772	      8.60074814	     36.97581130	      8.29381803	     14.22254557	     -8.48487097
      4.26000000	     -8.19029038	     -7.68538035	      6.61448827	     -0.15291556	     -0.03037525	      0.67043416	     26.13483500	      6.05085015	      1.30522099	    -31.12480178	      5.11947956	     -3.00779354	     12.40890436	     21.43253188	     -6.33232112	      2.49081994	    -68.04477101	    -20.90652862	      7.96769139	     35.94778434	      8.22298725	     14.20442280	     -8.17159341
      4.26500000	     -8.15335640	     -7.73113870	      6.54327437	     -0.14568052	     -0.02896308	      0.67070071	     25.30321862	      6.25843021	      1.52020763	    -30.52272989	      5.25604816	     -3.26211940	     12.22089445	     22.42949633	     -6.38540256	      2.27641418	    -68.65295844	    -20.71841391	      7.09453803	     35.74851458	      8.17334028	     14.23268186	     -7.93274734
      4.27000000	     -8.12693230	     -7.69343188	      6.36993307	     -0.13836941	     -0.02758050	      0.67102434	     24.46839083	      6.42364531	      1.88752877	    -29.95134920	      5.49360117	     -3.42960208	     11.58892132	     23.38302868	     -6.39194959	      1.89592997	    -69.25730362	    -20.03517743	      6.25389674	     33.98433763	      8.11180781	     14.19027825	     -7.56546614
      4.27500000	     -8.11055296	     -7.69376224	      6.24949485	     -0.13106887	     -0.02622263	      0.67128585	     23.62224729	      6.59037675	      2.18024211	    -29.31198651	      5.66196282	     -3.63681575	     11.18043932	     24.34719395	     -6.41655946	      1.61208777	    -69.73837894	    -19.57450148	      5.33797183	     32.89770879	      8.08553010	     14.17422184	     -7.28323752
      4.28000000	     -8.08835412	     -7.68365867	      6.12429514	     -0.12380307	     -0.02490192	      0.67154225	     22.76553000	      6.74095292	      2.48329793	    -28.66237866	      5.81714960	     -3.83666685	     10.81223655	     25.28659381	     -6.43476399	      1.33315433	    -70.13849636	    -19.07409063	      4.44777891	     31.83003607	      8.04199339	     14.14985282	     -6.99489441
      4.28500000	     -8.08125179	     -7.69208886	      6.05183351	     -0.11661476	     -0.02362918	      0.67173618	     21.92070167	      6.87625149	      2.71372623	    -27.97538750	      5.88173131	     -4.10178218	     10.61320282	     26.23967790	     -6.44070313	      1.15491769	    -70.41770401	    -18.77876585	      3.52456176	     31.52595955	      8.01702572	     14.13298826	     -6.74918994
      4.29000000	     -8.04762920	     -7.61869657	      5.86943873	     -0.10936151	     -0.02239348	      0.67202771	     21.03573688	      6.97078508	      3.11272172	    -27.32412923	      6.09896035	     -4.23531746	     10.10010805	     27.10753126	     -6.42760503	      0.81259123	    -70.68784942	    -18.00513330	      2.83035641	     29.92487418	      7.93242521	     14.05245529	     -6.40900535
      4.29500000	     -8.06234026	     -7.58683216	      5.78656044	     -0.10217831	     -0.02121637	      0.67219377	     20.19927119	      7.04428761	      3.34287325	    -26.61582730	      6.14381682	     -4.48248691	      9.89479459	     28.03102893	     -6.39453366	      0.64406069	    -70.79523017	    -17.67979798	      2.03085122	     29.68752610	      7.92430766	     13.99173356	     -6.17244594
      4.30000000	     -8.05802855	     -7.49791009	      5.62194770	     -0.09500523	     -0.02005948	      0.67247983	     19.33757523	      7.09399255	      3.71202209	    -25.92078173	      6.20788634	     -4.72981225	      9.61705793	     28.88227951	     -6.35570496	      0.38173412	    -70.82448823	    -17.27112466	      1.32069270	     29.18220832	      7.85943877	     13.88436796	     -5.83889592
      4.30500000	     -8.00814875	     -7.35408164	      5.44089026	     -0.08778955	     -0.01894393	      0.67273982	     18.42672933	      7.07646938	      4.07544024	    -25.26182045	      6.44495936	     -4.75363927	      9.06187847	     29.64575626	     -6.28106119	      0.08379092	    -70.83758114	    -16.41550998	      0.95928940	     27.64770425	      7.73949361	     13.72685498	     -5.50411800
      4.31000000	     -8.04699633	     -7.26110084	      5.33450643	     -0.08071001	     -0.01799118	      0.67292679	     17.62943375	      7.06675224	      4.32843911	    -24.57755779	      6.51390589	     -4.93251575	      8.89391124	     30.52430704	     -6.20425383	     -0.07824902	    -70.71195652	    -16.12396426	      0.33066110	     27.39338007	      7.72365922	     13.60048230	     -5.23790759
      4.31500000	     -7.99091849	     -7.11191128	      5.12153364	     -0.07357930	     -0.01699013	      0.67322555	     16.72345200	      7.03421576	      4.70919038	    -23.91556321	      6.68458553	     -4.94544153	      8.53605230	     31.23157952	     -6.15517302	     -0.37098922	    -70.54418531	    -15.43489337	     -0.00561980	     26.18109876	      7.56846279	     13.44197367	     -4.85305966
